<svg width="30" height="30" viewBox="0 0 30 30" fill="none" xmlns="http://www.w3.org/2000/svg"><path d="M30 15c.15 8.25-6.9 15-15 15S0 23.25 0 15 6.9 0 15.15 0c8.1.15 15 6.75 14.85 15zM4.05 22.05c1.05.45 21.3.3 21.9 0-2.55-2.4-4.95-4.65-7.5-7.05-.6.6-1.2 1.05-1.65 1.5-1.05.9-2.25 1.05-3.3 0-.6-.45-1.2-1.05-1.8-1.65-2.7 2.55-5.1 4.8-7.65 7.2zM24.75 7.8H5.4c3 2.7 5.7 5.25 8.55 7.95.9.9 1.35.9 2.25 0 1.65-1.5 3.15-3 4.8-4.35 1.2-1.35 2.4-2.4 3.75-3.6zm-20.7.3c-.3.6-.45 11.85-.15 12.75 2.4-2.1 4.65-4.35 7.05-6.45-2.25-2.1-4.5-4.05-6.6-6.15-.15-.15-.3-.15-.3-.15zm22.2 12.75c.3-1.35.15-12.15-.3-12.75l-6.75 6.3c2.4 2.1 4.65 4.2 7.05 6.45z" fill="#FF001F"/></svg>