<svg width="50" height="50" viewBox="0 0 50 50" fill="none" xmlns="http://www.w3.org/2000/svg"><g clip-path="url(#a)" fill="#FF001F"><path d="M47.5 33.333h-8.074l6.989-4.035a2.496 2.496 0 0 0 .923-3.414L41.503 15.78a2.499 2.499 0 0 0-1.52-1.164 2.473 2.473 0 0 0-1.9.254l-6.989 4.036 4.034-6.986a2.5 2.5 0 0 0-.911-3.425L24.115 2.66a2.497 2.497 0 0 0-3.412.923l-4.036 6.992V2.5a2.503 2.503 0 0 0-2.5-2.5H2.5A2.503 2.503 0 0 0 0 2.5v45A2.503 2.503 0 0 0 2.5 50h45a2.503 2.503 0 0 0 2.5-2.5V35.833a2.503 2.503 0 0 0-2.5-2.5zm-45 0a2.48 2.48 0 0 0-.833.154V25h6.671l-4.81 8.333H2.5zm33.593 0H24.697L20.88 26.73l8.659-5 6.663 11.542-.109.062zm-7.887-12.76l-9.865 5.698-6.609-3.816 4.998-8.657 11.541 6.663-.065.112zM15 13.461l-5.12 8.87c-.003.004-.008.006-.01.01l-.005.014-.564.978H1.667v-10H15v.128zm-4.1 10.437l5.775 3.335-10.564 6.1h-.658l5.447-9.435zm7.848 4.063l.01-.006.68-.393 3.336 5.771H9.443l9.304-5.372zM15 35h10v13.333H15V35zm11.667 0h10v13.333h-10V35zM38.92 16.31a.823.823 0 0 1 .631-.086.846.846 0 0 1 .511.391l5.832 10.099a.83.83 0 0 1-.31 1.138l-7.939 4.583-6.663-11.541 7.938-4.584zM22.148 4.414a.83.83 0 0 1 1.135-.309L33.38 9.937a.845.845 0 0 1 .395.512.825.825 0 0 1-.089.634l-4.581 7.935-11.541-6.663 4.584-7.941zM2.5 1.667h11.667c.46 0 .832.373.833.833v9.166H1.667V2.5c0-.46.373-.833.833-.833zM1.667 47.5V35.833c0-.46.373-.832.833-.833h10.834v13.333H2.5a.835.835 0 0 1-.833-.833zm46.666 0c0 .46-.373.833-.833.833h-9.166V35H47.5c.46 0 .833.373.833.833V47.5z"/><path d="M8.333 38.334a3.333 3.333 0 1 0 0 6.666 3.333 3.333 0 0 0 0-6.666zm0 5a1.667 1.667 0 1 1 0-3.334 1.667 1.667 0 0 1 0 3.333z"/></g><defs><clipPath id="a"><path fill="#fff" d="M0 0h50v50H0z"/></clipPath></defs></svg>