<svg width="50" height="50" viewBox="0 0 50 50" fill="none" xmlns="http://www.w3.org/2000/svg"><g clip-path="url(#a)" fill="#FF001F"><path d="M7.606 37.336l5.263 5.263-6.661 6.168L7.359 50l11.267-10.527h1.48c.658 0 1.316-.246 1.727-.74l4.934-4.934c.987-.986.987-2.55 0-3.454l-4.852-4.852 3.207-3.207c.987-.987.987-2.55 0-3.454l-.164-.165c-.987-.987-2.55-.987-3.454 0l-7.648 7.648h-.493c-1.399 0-2.468 1.07-2.468 2.467v2.961L8.428 34.21V12.335h6.58v-6.58h3.289v.823c0 1.398 1.069 2.467 2.467 2.467h13.158c1.398 0 2.467-1.069 2.467-2.467v-.822h9.869v41.941h-34.54v1.645h36.184V4.112H36.39c0-1.399-1.069-2.468-2.467-2.468H23.066C22.573.328 21.176-.33 19.942.164c-.988.329-1.645 1.316-1.645 2.302v1.645h-4.441l-7.073 7.073v24.671l-4.687 4.688 1.151 1.151 4.359-4.358zM28.166 7.4H26.52V3.289h1.645V7.4zm1.644-4.112h1.645V7.4H29.81V3.289zM24.876 7.4H23.23V3.289h1.645V7.4zm9.868-3.29v2.467c0 .494-.329.823-.822.823H33.1V3.289h.822c.493 0 .822.329.822.822zM19.942 2.466c0-.493.328-.822.822-.822.493 0 .822.33.822.822v4.935h-.822c-.494 0-.822-.33-.822-.823V2.466zM9.579 10.69l3.784-3.782v3.782H9.579zm3.784 17.27h2.467c.493 0 .822.33.822.822 0 .494-.329.823-.822.823h-.823v1.645h.823c1.398 0 2.467-1.07 2.467-2.468 0-1.233-.905-2.302-2.139-2.467l6.497-6.496a.795.795 0 0 1 1.152 0l.164.164a.795.795 0 0 1 0 1.151l-4.358 4.359 1.644 1.645-1.891 1.891 1.151 1.152 1.892-1.892 1.316 1.316-2.715 2.714 1.152 1.151 2.714-2.713.74.74a.795.795 0 0 1 0 1.15l-4.934 4.935a.746.746 0 0 1-.576.247h-1.48l-6.086-6.086v-2.96c0-.494.329-.823.823-.823zm-1.645 5.264l5.427 5.427-3.043 2.878-5.345-5.345 2.96-2.96z"/><path d="M29.81 10.69h-.822v12.336h12.336v-.823c0-6.332-5.18-11.513-11.513-11.513zm4.36 2.714l-3.537 3.536v-4.605c1.234.164 2.467.493 3.536 1.07zm-3.537 5.84l5.017-5.017a8.799 8.799 0 0 1 2.138 2.138L32.77 21.38h-2.138v-2.138zm4.44 2.137l3.537-3.536c.576 1.151.905 2.303.987 3.536h-4.523zm-7.729-4.111v-6.58h-.823c-6.908 0-12.664 5.346-13.158 12.254l1.645.082a11.497 11.497 0 0 1 10.691-10.691v4.934h1.645zM19.12 41.118h23.85v1.645H19.12v-1.645zm0 3.29h23.85v1.644H19.12v-1.644zm9.868-5.757h.823a12.32 12.32 0 0 0 12.335-12.336v-1.644H28.988v13.98zm1.645-12.336h9.869c0 5.593-4.277 10.198-9.869 10.691v-10.69z"/><path d="M32.278 27.96h1.645v1.645h-1.645V27.96zm3.289 0h1.645v1.645h-1.645V27.96zm-3.289 3.29h1.645v1.644h-1.645V31.25z"/></g><defs><clipPath id="a"><path fill="#fff" d="M0 0h50v50H0z"/></clipPath></defs></svg>