<svg id="Слой_1" data-name="Слой 1" xmlns="http://www.w3.org/2000/svg" viewBox="0 0 66.25 47.88"><defs><style>.cls-1{fill:#ff001f}.cls-2{fill:#fff}</style></defs><title>design-img2</title><path class="cls-1" d="M68.25 45.55V6.13H2v39.42h25.6l-1.52 5.2h-3.69V54h25.47v-3.25h-3.7l-1.52-5.2zM65.9 7.72V34H4.1V7.72zM4.1 43.22v-5.71h61.8v5.71zm36.23 9.11H29.67l1.6-5.61h7.45zM28.9 48.91" transform="translate(-2 -6.13)"/><path class="cls-2" d="M2.13 26.88h61.79v2.38H2.13zM33.84 32h3.53v4.5h-3.53zM28 31.84h3.47v4.5H28z"/><path class="cls-2" d="M31.16 31.84h3.16v1.22h-3.16zm0 3.44h3.16v1.22h-3.16z"/><path class="cls-1" d="M32.81 38.61h4.1v3.5h-4.1zm-5.87-13.46a5.3 5.3 0 0 0 2.59.74c2 0 2.67-1.3 2.65-2.27 0-1.64-1.49-2.34-3-2.34h-.88v-1.19h.88c1.15 0 2.61-.59 2.61-2 0-.94-.59-1.76-2.05-1.76a4.31 4.31 0 0 0-2.34.77L27 16a5.57 5.57 0 0 1 3.06-.9c2.3 0 3.35 1.37 3.35 2.79a2.91 2.91 0 0 1-2.16 2.75 3 3 0 0 1 2.61 3c0 1.87-1.46 3.51-4.27 3.51a6 6 0 0 1-3-.79zM36.35 15a22.44 22.44 0 0 1 3.33-.25 7 7 0 0 1 4.92 1.51 5.59 5.59 0 0 1 1.71 4.36 6.42 6.42 0 0 1-1.75 4.72 7.48 7.48 0 0 1-5.37 1.75 25.22 25.22 0 0 1-2.84-.14zm1.57 10.73a9.93 9.93 0 0 0 1.58.09c3.35 0 5.17-1.87 5.17-5.15 0-2.86-1.6-4.68-4.92-4.68a8.91 8.91 0 0 0-1.84.16z" transform="translate(-2 -6.13)"/></svg>