<svg width="70" height="45" viewBox="0 0 70 45" fill="none" xmlns="http://www.w3.org/2000/svg"><path d="M47.667 7.021c-.248-.216-.605-.313-.96-.27l-12.854 1.7a1.23 1.23 0 0 0-.41.129L23.358 6.76a1.228 1.228 0 0 0-1.02.261L9.12 18.538c-.957.834-1.27 2.034-.815 3.133l1.903 4.592c.338.817.918 1.557 1.675 2.14l1.845 1.418c-.305.624-1.022 2.379-.48 4.26 1.421 4.925 5.056 7.936 11.437 9.476 1.247.302 2.559.4 3.738.4 1.52 0 2.808-.162 3.461-.262a6.93 6.93 0 0 0 3.433.906c.525 0 1.053-.056 1.576-.171 7.163-1.603 11.874-5.53 14.027-11.663.258-.036.505-.128.682-.314l5.638-5.933c.09-.095.174-.19.255-.289l3.401-4.14c.983-1.194.825-2.82-.373-3.866L47.667 7.02zM25.292 41.77c-5.618-1.356-8.673-3.863-9.903-8.128-.266-.921-.088-1.83.115-2.455l14.132 10.871c-1.266.077-2.885.064-4.344-.288zm23.712-10.081a17.715 17.715 0 0 1-1.03 2.545L36.68 25.755c-.455-.343-1.15-.309-1.553.077-.405.383-.364.971.091 1.311l11.555 8.675c.067.05.146.079.222.113a14.17 14.17 0 0 1-1.964 2.35l-12.197-9.27c-.452-.342-1.147-.312-1.554.07-.407.38-.37.969.081 1.312l12.102 9.197a16.307 16.307 0 0 1-2.72 1.58.935.935 0 0 0-.21-.236L28.976 32.26c-.454-.342-1.149-.307-1.553.078-.404.383-.363.97.091 1.311l11.122 8.348c-.732.242-1.498.453-2.303.633-1.31.292-2.683.003-3.68-.766L13.366 27.027a3.391 3.391 0 0 1-1.08-1.379l-1.903-4.592c-.178-.43-.056-.9.318-1.225L23.493 8.685l12.16 2.194c.741.133 1.42.44 1.965.885l3.784 3.098c.738.604 1.107 1.446 1.012 2.31-.093.862-.638 1.633-1.494 2.113l-.938.527c-2.922-2.213-5.254-3.975-5.254-3.975-.453-.34-1.144-.31-1.55.07-.406.378-.374.963.072 1.308l5.807 4.498c.119.091.255.157.4.198a3076.72 3076.72 0 0 1 8.341 6.333c1.148.866 1.61 2.185 1.206 3.444zM59.09 21.03l-3.402 4.14c-.054.066-.11.13-.167.189l-4.274 4.497c-.24-1.135-.913-2.193-1.975-2.996a3624.66 3624.66 0 0 0-7.596-5.768l.463-.258c1.415-.795 2.314-2.068 2.47-3.493.155-1.427-.454-2.817-1.673-3.815L39.15 10.43a6.216 6.216 0 0 0-1.02-.661l8.354-1.106 12.459 10.855c.468.41.53 1.046.146 1.514zM21.25 4.974L15.958.499a1.212 1.212 0 0 0-.778-.272h-.002c-.29 0-.571.098-.778.271L.323 12.37c-.43.364-.43.952-.001 1.316l5.291 4.475c.207.174.487.272.778.272h.001c.292 0 .572-.098.779-.271L21.249 6.289c.43-.363.43-.95 0-1.315zM6.394 16.189l-3.737-3.16 12.52-10.558 3.737 3.16-12.52 10.558zm63.283-3.819L55.6.498a1.217 1.217 0 0 0-.779-.271c-.292 0-.572.098-.779.272l-5.291 4.475c-.43.364-.43.952 0 1.315L62.83 18.162c.207.173.487.271.779.271.292 0 .572-.098.779-.272l5.291-4.475c.43-.364.43-.953 0-1.316zm-6.07 3.82L51.087 5.63l3.735-3.16 12.52 10.56-3.736 3.16z" fill="#FF001F"/></svg>