<svg width="70" height="70" viewBox="0 0 70 70" fill="none" xmlns="http://www.w3.org/2000/svg"><g clip-path="url(#a)" fill="#FF001F"><path d="M68.19 47.048h-8.17a7.945 7.945 0 0 1-.152-.383 4.51 4.51 0 0 0 3.468-4.383 4.508 4.508 0 0 0-3.94-4.467c-.901-13-20.395-13.056-21.3-.002a4.51 4.51 0 0 0-3.94 4.47 4.511 4.511 0 0 0 3.473 4.384 7.26 7.26 0 0 1-.15.38h-5.612c.251-.5.393-1.064.393-1.662 0-6.18-4.24-11.854-11.062-13.15 2.266-1.486 4.485-3.701 5.237-6.342 4.148-1.231 4.324-7.055.265-8.545v-.855c1.501 0 2.603-1.35 2.603-2.885v-3.4a1.029 1.029 0 1 0-2.059 0v3.4c0 .39-.217.826-.544.826-1.552 0-9.328.419-13.84-4.166-.614-.627-1.695-.238-1.76.647-.08 1.085-1.078 1.936-2.272 1.936H7.133c-.81 0-1.46-.593-1.46-1.31V7.85c0-1.153 1.029-2.078 2.278-2.078.921 0 1.15-.024 1.569.097a1.03 1.03 0 0 0 1.28-.71c.476-1.695 2.13-2.823 3.953-2.823h8.404c2.243 0 4.077 1.686 4.087 3.758a1.03 1.03 0 0 0 2.06-.01C29.285 2.881 26.528.277 23.156.277h-8.404c-2.446 0-4.63 1.38-5.608 3.447-.218-.014-.24-.011-1.194-.011-2.391 0-4.338 1.856-4.338 4.137v3.69c0 1.555 1.105 2.867 2.604 3.254v2.552c-4.06 1.49-3.883 7.313.265 8.546.752 2.64 2.97 4.855 5.237 6.343 0 0-3.326.415-6.33 2.956a13.326 13.326 0 0 0-4.73 10.194c0 .65.168 1.265.463 1.8A1.812 1.812 0 0 0 0 48.858v5.417c0 .998.813 1.81 1.81 1.81h.616v12.209c0 .85.692 1.544 1.544 1.544h3.088a1.03 1.03 0 0 0 0-2.06H4.484V56.087H37.49c.327.253.66.495 1 .726-2.049 2.479-3.203 5.796-3.203 9.279 0 .595.124 1.172.355 1.688H11.176a1.03 1.03 0 0 0 0 2.059H66.08c.851 0 1.545-.694 1.545-1.544V56.086h.563c1 0 1.811-.813 1.811-1.811v-5.417a1.81 1.81 0 0 0-1.81-1.81zM26.7 19.685a2.442 2.442 0 0 1 0 3.784v-3.784zM6.217 23.467a2.44 2.44 0 0 1 0-3.782v3.782zm53.21 16.445c2.468.619 2.445 4.131 0 4.74v-4.74zm-21.364-.002l.001 4.743c-2.463-.618-2.45-4.128-.001-4.743zm-12.293-.244c1.017-.439 1.021-1.417.87-2.505 2.144 1.973 3.561 4.931 3.561 8.224 0 .895-.707 1.624-1.591 1.663H17.488v-7.08l4.643-1.973 1.986 1.435a1.597 1.597 0 0 0 1.653.236zm-9.362-1.933l-1.993-2.243v-1.842c1.584.608 2.491.611 4.086.001v1.828l-2.093 2.256zm5.355-3.27c.093 0 .86.258 1.125.356.928.528 1.484 1.318 1.68 2.395-2.22-1.6-1.922-1.675-4.23-.693.287-.362.222-.56.222-2.302.425.068.786.132 1.203.244zM8.696 25.982c-.58-1.361-.42-1.207-.42-11.072h.552c1.609 0 3.033-.85 3.782-2.115 2.967 2.324 7.244 3.651 12.03 3.697 0 8.072.16 8.131-.42 9.49-1.39 3.262-5.856 5.889-7.592 6.06-2.103 0-6.6-2.936-7.932-6.06zm3.66 8.237c0 1.742-.069 1.95.237 2.319l-1.132-.493c-.669-.3-1.343-.11-1.664.125L8.35 37.214c.377-2.076 1.843-2.676 4.005-2.995zm-6.08 2.94c-.15 1.084-.148 2.066.87 2.505.554.24 1.195.147 1.653-.234l1.985-1.433c5.67 2.469 4.256 1.846 4.645 2.04v7.01H4.308a1.663 1.663 0 0 1-1.592-1.662c0-3.128 1.29-6.094 3.56-8.226zm28.775 13.309a2.25 2.25 0 0 0-.189 3.155c.112.126.175.197.368.403H2.06v-4.919H36.3a9.598 9.598 0 0 1-1.249 1.36zm1.352 1.79c-.144-.162.069-.295.255-.47 2.637-2.497 3.465-5.802 3.465-6.785 0-6.722-.011-6.448.022-6.972.692-10.791 17.224-10.614 17.224.717l-.001 6.255c0 .565.544 4.019 3.467 6.785.183.173.397.308.253.47-7.003 7.897-18.206 7.31-24.684 0zm22.505 15.499H38.583c-.662 0-1.238-.745-1.238-1.666 0-3.122 1.061-6.073 2.932-8.206a18.285 18.285 0 0 0 8.536 2.137c2.975 0 5.838-.729 8.426-2.11 1.76 2.013 2.907 4.896 2.907 8.179 0 .903-.567 1.666-1.238 1.666zm6.658.022h-3.72a4.1 4.1 0 0 0 .359-1.688c0-3.48-1.13-6.763-3.187-9.261.343-.237.68-.484 1.01-.744h5.538v11.693zm2.375-13.753h-5.68c.125-.13.28-.302.368-.403a2.25 2.25 0 0 0-.19-3.155c-.49-.44-.9-.9-1.245-1.36h6.747v4.918z"/><path d="M66.754.273H34.085A3.25 3.25 0 0 0 30.84 3.52v16.746a3.25 3.25 0 0 0 3.246 3.246h1.406l-2.99 4.617c-1.247 1.926 1.14 4.127 2.956 2.746l9.723-7.363h21.574A3.25 3.25 0 0 0 70 20.266V3.52A3.25 3.25 0 0 0 66.754.273zm-32.49 28.923l3.68-5.684h3.825l-7.505 5.684zm33.677-8.93c0 .655-.533 1.187-1.188 1.187H34.086a1.188 1.188 0 0 1-1.187-1.187V3.52c0-.655.532-1.188 1.187-1.188h32.669A1.19 1.19 0 0 1 67.94 3.52v16.746z"/><path d="M64.069 5.53H36.77a1.029 1.029 0 1 0 0 2.06h27.3a1.03 1.03 0 1 0 0-2.06zm0 5.333h-3.963a1.03 1.03 0 1 0 0 2.06h3.963a1.03 1.03 0 1 0 0-2.06zM36.77 12.922h19.217a1.03 1.03 0 1 0 0-2.059H36.77a1.029 1.029 0 1 0 0 2.06zm27.299 3.274H36.77a1.03 1.03 0 0 0 0 2.06h27.3a1.03 1.03 0 1 0 0-2.06zm-45.773 7.236c-.569 0-1.03.46-1.03 1.03a.808.808 0 0 1-1.615 0c0-.57-.461-1.03-1.03-1.03-1.926 0-1.035 3.896 1.838 3.896 2.872 0 3.762-3.896 1.837-3.896zm3.974-2.702a1.091 1.091 0 1 1-2.182.001 1.091 1.091 0 0 1 2.183 0zm-9.44 0a1.092 1.092 0 1 1-2.184 0 1.092 1.092 0 0 1 2.183 0zm7.089-1.474c.622-.13 2.132-.255 2.832.185.17.107.36.158.547.158 1.027 0 1.423-1.352.549-1.9-1.584-.997-4.07-.517-4.349-.458a1.029 1.029 0 1 0 .42 2.015zm-5.703-.798a1.03 1.03 0 0 0-.798-1.217c-.278-.059-2.764-.538-4.348.457a1.028 1.028 0 1 0 1.096 1.743c.668-.42 2.093-.336 2.834-.185.557.116 1.1-.241 1.216-.798zm6.048 26.262c0 .568.46 1.03 1.03 1.03h5.865a1.029 1.029 0 1 0 0-2.06h-5.866a1.03 1.03 0 0 0-1.03 1.03zM5.758 45.75h5.866a1.03 1.03 0 1 0 0-2.06H5.758a1.03 1.03 0 1 0 0 2.06z"/></g><defs><clipPath id="a"><path fill="#fff" d="M0 0h70v70H0z"/></clipPath></defs></svg>