<svg width="35" height="35" viewBox="0 0 35 35" fill="none" xmlns="http://www.w3.org/2000/svg"><g clip-path="url(#a)" fill="#FF001F"><path d="M34.903 18.084L30.908 7.287a1.555 1.555 0 0 0-.814-.88 1.556 1.556 0 0 0-1.198-.045L9.42 13.567a1.556 1.556 0 0 0-.88.815c-.174.38-.19.805-.046 1.197l3.995 10.797c.145.392.434.704.814.88a1.56 1.56 0 0 0 1.198.045l19.476-7.205c.81-.3 1.225-1.203.926-2.012zm-7.077-9.656l-6.042 8.636-10.207-2.625 16.249-6.011zM13.675 25.07l-3.465-9.366 8.024 2.064-4.56 7.302zm1.696.24l4.454-7.133 2.095.54a.784.784 0 0 0 .837-.31l1.24-1.773 8.023 2.516-16.649 6.16zm9.568-10.022l4.748-6.79 3.466 9.367-8.214-2.577zM9.122 26.59a.783.783 0 0 0-1.006-.463l-2.95 1.092a.783.783 0 0 0 .543 1.468l2.95-1.091c.406-.15.613-.6.463-1.006zm-3.993-7.268a.783.783 0 0 0-1.006-.463l-1.822.674A.783.783 0 1 0 2.845 21l1.82-.674c.406-.15.614-.6.464-1.006zM2.87 25.253a.783.783 0 0 0-1.005-.463l-1.354.5a.783.783 0 0 0 .544 1.47l1.353-.501c.406-.15.613-.6.463-1.006z"/></g><defs><clipPath id="a"><path fill="#fff" d="M0 0h35v35H0z"/></clipPath></defs></svg>