<svg width="50" height="50" viewBox="0 0 50 50" fill="none" xmlns="http://www.w3.org/2000/svg"><g clip-path="url(#a)" fill="#FF001F"><path d="M43.635 48.239l-6.592-13.944a1.234 1.234 0 0 0-.633-.607l-3.28-1.46 5.683-9.523a15.386 15.386 0 0 0 1.741-7.151c0-4.196-1.645-8.129-4.632-11.075A15.443 15.443 0 0 0 24.78.002c-4.077.056-7.915 1.694-10.809 4.61-2.893 2.918-4.5 6.77-4.524 10.847a15.599 15.599 0 0 0 1.741 7.245l5.682 9.524-3.298 1.468c-.27.12-.488.332-.614.6L6.366 48.238a1.233 1.233 0 0 0 1.618 1.654l8.257-3.676 8.258 3.676c.32.142.684.142 1.004 0l8.257-3.676 8.258 3.676a1.233 1.233 0 0 0 1.617-1.654zM13.328 21.475a12.94 12.94 0 0 1-1.413-6.001c.042-7.073 5.829-12.907 12.9-13.005a13.003 13.003 0 0 1 9.374 3.767 12.992 12.992 0 0 1 3.898 9.318c0 2.085-.476 4.077-1.414 5.921L26.06 39.263a1.214 1.214 0 0 1-1.06.602c-.21 0-.735-.059-1.059-.602L13.328 21.475zM34.262 43.74a1.235 1.235 0 0 0-1.004 0L25 47.416l-8.257-3.677a1.235 1.235 0 0 0-1.004 0l-5.72 2.547 4.974-10.522 3.15-1.402 3.679 6.165A3.67 3.67 0 0 0 25 42.332a3.67 3.67 0 0 0 3.179-1.805l3.678-6.165 3.15 1.402 4.975 10.522-5.72-2.547z"/><path d="M25 9.923a5.637 5.637 0 0 0-5.63 5.63 5.637 5.637 0 0 0 5.63 5.63 5.637 5.637 0 0 0 5.631-5.63 5.637 5.637 0 0 0-5.63-5.63zm0 8.793a3.167 3.167 0 0 1-3.163-3.163 3.167 3.167 0 0 1 3.164-3.163 3.167 3.167 0 0 1 3.163 3.163 3.167 3.167 0 0 1-3.163 3.163z"/></g><defs><clipPath id="a"><path fill="#fff" d="M0 0h50v50H0z"/></clipPath></defs></svg>