<svg width="50" height="50" viewBox="0 0 50 50" fill="none" xmlns="http://www.w3.org/2000/svg"><g clip-path="url(#a)" fill="#FF001F"><path d="M46.239 13.566l-.002-.039a52.36 52.36 0 0 1-.045-1.553c-.04-2.757-2.232-5.038-4.99-5.192-5.748-.32-10.195-2.195-13.995-5.899l-.032-.03a3.2 3.2 0 0 0-4.35 0l-.031.03c-3.8 3.704-8.248 5.578-13.996 5.9-2.757.153-4.949 2.434-4.99 5.19-.008.562-.023 1.07-.045 1.554l-.002.09c-.112 5.863-.25 13.158 2.19 19.78 1.342 3.642 3.374 6.807 6.04 9.41 3.037 2.962 7.014 5.315 11.821 6.991A3.664 3.664 0 0 0 25 50a3.593 3.593 0 0 0 1.19-.203c4.802-1.679 8.775-4.033 11.808-6.995 2.665-2.603 4.698-5.77 6.041-9.412 2.45-6.641 2.311-13.95 2.2-19.824zm-4.953 18.81c-2.574 6.979-7.828 11.772-16.064 14.652a.658.658 0 0 1-.443 0c-8.245-2.875-13.503-7.665-16.075-14.645-2.25-6.104-2.122-12.801-2.01-18.71l.001-.032c.023-.508.038-1.04.047-1.624a2.355 2.355 0 0 1 2.22-2.305c3.253-.182 6.11-.81 8.737-1.922 2.622-1.11 4.951-2.675 7.12-4.784a.27.27 0 0 1 .363 0c2.169 2.11 4.498 3.674 7.12 4.784 2.626 1.112 5.484 1.74 8.737 1.922a2.355 2.355 0 0 1 2.22 2.305c.009.588.024 1.12.047 1.624.112 5.915.236 12.617-2.02 18.734z"/><path d="M25 12.54c-6.871 0-12.46 5.59-12.46 12.46 0 6.872 5.589 12.462 12.46 12.462 6.87 0 12.46-5.59 12.46-12.461 0-6.87-5.59-12.46-12.46-12.46zm0 21.988c-5.253 0-9.527-4.274-9.527-9.527 0-5.253 4.274-9.527 9.527-9.527 5.253 0 9.526 4.274 9.526 9.527 0 5.253-4.273 9.527-9.526 9.527z"/><path d="M28.58 21.132l-5.787 5.788-1.571-1.57a1.467 1.467 0 0 0-2.075 2.073l2.609 2.609a1.461 1.461 0 0 0 2.074 0l6.825-6.825a1.467 1.467 0 0 0-2.074-2.075z"/></g><defs><clipPath id="a"><path fill="#fff" d="M0 0h50v50H0z"/></clipPath></defs></svg>