<svg width="70" height="70" viewBox="0 0 70 70" fill="none" xmlns="http://www.w3.org/2000/svg"><g clip-path="url(#a)" fill="#FF001F"><path d="M10.208 11.646a4.375 4.375 0 0 0-4.375 4.374v11.667H8.75V16.02c0-.805.652-1.458 1.458-1.458h35v-2.916h-35zm0 43.749a1.458 1.458 0 0 1-1.458-1.458V39.353H5.833v14.584a4.375 4.375 0 0 0 4.375 4.375H24.79v-2.917H10.208z"/><path d="M46.24 59.157L10.821 23.74a1.458 1.458 0 0 0-2.062 0L.427 32.072c-.57.57-.57 1.493 0 2.063l35.417 35.417a1.458 1.458 0 0 0 2.062 0l8.333-8.333c.57-.57.57-1.493 0-2.062zm-9.365 7.302L3.52 33.103l6.271-6.27 33.355 33.355-6.27 6.27z"/><path d="M64.167 55.395H42.29v2.917h16.042v7.292c0 .805.653 1.458 1.459 1.458h4.375a5.833 5.833 0 1 0 0-11.666zm0 8.75H61.25v-5.833h2.917a2.917 2.917 0 0 1 0 5.834z"/><path d="M64.167 11.646h-7.292v2.916h7.292a2.917 2.917 0 0 1 2.916 2.917v43.75H70v-43.75a5.833 5.833 0 0 0-5.833-5.833zM26.678 41.239l-4.376 4.375 2.063 2.063L28.74 43.3l-2.062-2.062zm-5.833-5.833l-4.376 4.375 2.063 2.063 4.375-4.376-2.063-2.062zm11.663 11.666l-4.376 4.375 2.063 2.063 4.375-4.376-2.062-2.062zm5.836 5.837l-4.376 4.375 2.063 2.063 4.375-4.376-2.062-2.062zM15.007 29.572l-4.375 4.375 2.062 2.063 4.376-4.376-2.063-2.062z"/><path d="M62.904 3.257L60.888 1.24a4.413 4.413 0 0 0-6.094 0L32.618 23.417c-.57.57-.57 1.492 0 2.062l6.048 6.048a1.459 1.459 0 0 0 2.062 0L62.904 9.35l.002-.002a4.308 4.308 0 0 0-.002-6.092zm-2.061 4.03L39.697 28.434l-3.986-3.985L56.857 3.303a1.425 1.425 0 0 1 1.969 0l2.017 2.014v.001a1.393 1.393 0 0 1 0 1.97z"/><path d="M39.23 29.113l-6.295 2.102 2.101-6.305-2.77-.923-3.025 9.073a1.458 1.458 0 0 0 1.384 1.92c.154 0 .308-.024.455-.071l9.072-3.025-.923-2.77zm13.593-23.84l-2.062 2.062 6.048 6.048 2.062-2.063-6.048-6.047z"/><path d="M52.5 32.063H30.625v2.916H52.5v-2.916zm5.833 0h-2.916v2.916h2.916v-2.916zm5.833 0H61.25v2.916h2.916v-2.916z"/></g><defs><clipPath id="a"><path fill="#fff" d="M0 0h70v70H0z"/></clipPath></defs></svg>