<svg width="50" height="50" viewBox="0 0 50 50" fill="none" xmlns="http://www.w3.org/2000/svg"><path d="M25 0C11.193 0 0 11.193 0 25s11.193 25 25 25 25-11.193 25-25C49.982 11.2 38.8.018 25 0zm1.073 47.801v-4.397a1.073 1.073 0 0 0-2.146 0v4.397C12.167 47.24 2.76 37.833 2.2 26.072h4.397a1.073 1.073 0 0 0 0-2.145H2.199C2.76 12.167 12.167 2.76 23.927 2.2v4.397a1.073 1.073 0 0 0 2.146 0V2.199c11.76.561 21.167 9.968 21.728 21.728h-4.397a1.073 1.073 0 0 0 0 2.146h4.408c-.562 11.764-9.975 21.172-21.74 21.728z" fill="#FF001F"/><path d="M36.314 34.974L26.072 24.56V13.74a1.073 1.073 0 0 0-2.145 0V25c.001.281.113.551.31.75l10.544 10.726a1.073 1.073 0 1 0 1.533-1.502z" fill="#FF001F"/></svg>