<svg width="50" height="38" viewBox="0 0 50 38" fill="none" xmlns="http://www.w3.org/2000/svg"><path d="M17.053 18.545c4.143 0 7.521-2.544 7.521-5.661 0-3.117-3.368-5.661-7.521-5.661-4.153 0-7.522 2.544-7.522 5.661 0 3.117 3.379 5.661 7.522 5.661zm0-9.312c3.016 0 5.51 1.67 5.51 3.65 0 1.982-2.524 3.65-5.51 3.65-2.987 0-5.51-1.668-5.51-3.65 0-1.98 2.523-3.66 5.51-3.66v.01z" fill="#FF001F"/><path d="M48.939 23.342H34.097V12.874c0-6.878-7.652-12.478-17.094-12.478C7.56.396-.092 5.996-.092 12.874v12.368c0 6.335 6.486 11.564 14.842 12.358h.171c.694.061 1.398.111 2.112.111h31.906c.555 0 1.005-.45 1.005-1.005V24.347c0-.555-.45-1.005-1.005-1.005zM17.053 2.416c8.295 0 15.083 4.696 15.083 10.468S25.39 23.352 17.053 23.352 1.97 18.656 1.97 12.884 8.767 2.416 17.053 2.416zm15.083 16.33v4.596h-5.832a15.163 15.163 0 0 0 5.782-4.595h.05zM47.933 35.7h-2.011v-5.088a1.006 1.006 0 0 0-2.011 0v5.098h-4.022v-2.765a1.006 1.006 0 0 0-2.012 0v2.765h-4.022v-2.765a1.006 1.006 0 0 0-2.01 0v2.765h-4.023v-5.098a1.006 1.006 0 0 0-2.011 0v5.098H21.96v-2.765a1.006 1.006 0 0 0-2.012 0v2.765h-4.022v-2.765a1.006 1.006 0 0 0-2.011 0v2.524C7.128 34.463 2.02 30.26 2.02 25.232v-6.485c2.876 3.931 8.537 6.606 15.083 6.606h30.83V35.7z" fill="#FF001F"/></svg>