<svg width="50" height="50" viewBox="0 0 50 50" fill="none" xmlns="http://www.w3.org/2000/svg"><path d="M44.531 36.719h1.563v1.562H44.53V36.72zm-1.562 2.344h3.125v1.562h-3.125v-1.563zm-1.563 2.343h4.688v1.563h-4.688v-1.563zM6.25 21.875h1.563V25H6.25v-3.125zm6.25 0h1.563V25H12.5v-3.125zm29.688 0h1.562V25h-1.563v-3.125zm-6.25 0H37.5V25h-1.563v-3.125zm-12.5 6.25h3.125v1.563h-3.125v-1.563zm0 6.25h3.125v1.563h-3.125v-1.563zm0 6.25h3.125v1.563h-3.125v-1.563zm.817-33.363l1.105-1.104 2.856 2.856-1.105 1.104-2.856-2.856zm2.344-2.342l1.104-1.105L30.56 6.67l-1.105 1.105-2.856-2.857z" fill="#FF001F"/><path d="M46.094 1.563H3.906a2.344 2.344 0 0 0-2.344 2.343v43.75a.781.781 0 0 0 .782.782h45.312a.781.781 0 0 0 .782-.782V3.906a2.344 2.344 0 0 0-2.344-2.344zm.781 2.343V43.75h-6.25V3.125h5.469a.781.781 0 0 1 .781.781zM18.75 26.563h12.5v4.687h-12.5v-4.688zm0 6.25h12.5V37.5h-12.5v-4.688zM31.25 25h-12.5V3.125h12.5V25zM17.187 43.75h-6.25V3.125h6.25V43.75zm1.563-4.688h12.5v4.688h-12.5v-4.688zM32.813 3.126h6.25V43.75h-6.25V3.125zm-28.907 0h5.469V43.75h-6.25V3.906a.781.781 0 0 1 .781-.781zm-.781 43.75v-1.563h43.75v1.563H3.125z" fill="#FF001F"/></svg>