<svg width="50" height="50" viewBox="0 0 50 50" fill="none" xmlns="http://www.w3.org/2000/svg"><g clip-path="url(#a)" fill="#FF001F"><path d="M49.86 41.207l-6.09-9.138 1.067-.333a.833.833 0 0 0 .529-1.098l-1.873-4.816 3.813-3.545a.833.833 0 0 0 0-1.22l-3.813-3.545 1.873-4.816a.834.834 0 0 0-.528-1.098l-5.013-1.563-.439-5.141a.838.838 0 0 0-.31-.584.827.827 0 0 0-.635-.174l-5.217.723L30.553.405a.833.833 0 0 0-1.174-.267L25 3.02 20.622.138a.833.833 0 0 0-1.173.267L16.777 4.86l-5.217-.722a.833.833 0 0 0-.945.755l-.439 5.141-5.009 1.564a.833.833 0 0 0-.528 1.097l1.872 4.816-3.817 3.546a.833.833 0 0 0 0 1.22l3.813 3.545-1.873 4.815a.833.833 0 0 0 .528 1.098l1.106.344-6.144 9.984a.833.833 0 0 0 .859 1.257l8.36-1.52 1.507 7.533c.066.33.325.589.655.654.054.01.108.014.162.013.278 0 .539-.14.693-.371l5.847-8.77 1.24 2.07a.834.834 0 0 0 1.178.267L25 40.313l4.378 2.883a.833.833 0 0 0 1.174-.268l1.241-2.07 5.847 8.77a.833.833 0 0 0 1.51-.298l1.517-7.6 8.424.77a.834.834 0 0 0 .769-1.293zM12.092 47.03l-1.275-6.364a.833.833 0 0 0-.966-.656l-7.329 1.333 5.388-8.751 2.265.706.439 5.142a.837.837 0 0 0 .945.757l5.217-.722.483.805-5.167 7.75zm19.986-9.883l-2.509 4.182-4.11-2.71a.834.834 0 0 0-.917 0l-4.112 2.707-2.508-4.183a.833.833 0 0 0-.83-.397l-4.892.677-.411-4.824a.833.833 0 0 0-.584-.725L6.511 30.41l1.75-4.51a.833.833 0 0 0-.209-.912l-3.567-3.32 3.571-3.32a.833.833 0 0 0 .21-.913l-1.75-4.511 4.695-1.464a.833.833 0 0 0 .583-.726l.412-4.824 4.893.678a.833.833 0 0 0 .833-.398l2.508-4.181 4.102 2.706a.834.834 0 0 0 .916 0l4.112-2.706 2.508 4.182a.84.84 0 0 0 .83.397L37.8 5.91l.412 4.824c.028.338.26.625.583.725l4.696 1.465-1.755 4.51a.833.833 0 0 0 .209.913l3.57 3.32-3.57 3.32a.833.833 0 0 0-.21.912l1.75 4.512-4.692 1.464a.833.833 0 0 0-.583.725l-.412 4.824-4.891-.674a.839.839 0 0 0-.83.397zM40.075 40a.845.845 0 0 0-.892.666l-1.272 6.361-5.167-7.75.482-.803 5.217.723a.833.833 0 0 0 .945-.756l.439-5.141 2.287-.713 5.393 8.092-7.432-.68z"/><path d="M37.5 17.5A2.5 2.5 0 0 0 35 15h-5.834v-3.333A4.163 4.163 0 0 0 25.008 7.5H25a.833.833 0 0 0-.834.834v3.97l-1.5 2.993-2.681 2.146a.827.827 0 0 0-.818-.776h-5.834a.833.833 0 0 0-.833.833V30c0 .46.373.833.833.833h5.834c.46 0 .833-.373.833-.833h12.5a2.512 2.512 0 0 0 2.5-2.5 2.47 2.47 0 0 0-.334-1.223c.154-.096.296-.21.424-.339.808-.785.977-2.02.41-2.995.154-.096.296-.21.423-.338.808-.786.977-2.02.41-2.995.154-.096.296-.21.423-.338A2.453 2.453 0 0 0 37.5 17.5zM18.333 29.167h-4.166V18.333h4.166v10.834zm17.245-11.074a.797.797 0 0 1-.578.24h-3.334V20h2.5c.46 0 .834.373.834.833a.81.81 0 0 1-.255.594.797.797 0 0 1-.579.24h-3.333v1.666h2.5c.46 0 .833.373.833.834a.807.807 0 0 1-.255.593.797.797 0 0 1-.578.24H30v1.667h2.5c.46 0 .833.373.833.833a.81.81 0 0 1-.255.593.797.797 0 0 1-.578.24H20v-8.766l3.854-3.083a.837.837 0 0 0 .225-.278l1.667-3.333a.834.834 0 0 0 .087-.373V9.31a2.49 2.49 0 0 1 1.667 2.357v4.167c0 .46.373.833.833.833H35c.46 0 .833.373.833.833a.81.81 0 0 1-.255.593z"/></g><defs><clipPath id="a"><path fill="#fff" d="M0 0h50v50H0z"/></clipPath></defs></svg>