<svg width="50" height="50" viewBox="0 0 50 50" fill="none" xmlns="http://www.w3.org/2000/svg"><path d="M38.245 14.198c-.98 0-1.887.32-2.622.862a4.434 4.434 0 0 0-3.982-2.491c-.984 0-1.893.322-2.629.866a4.435 4.435 0 0 0-3.976-2.48c-.79 0-1.533.208-2.175.572V4.429A4.434 4.434 0 0 0 18.43 0a4.434 4.434 0 0 0-4.429 4.43v16.436a4.422 4.422 0 0 0-1.658-.57 4.4 4.4 0 0 0-3.277.87 4.4 4.4 0 0 0-1.702 2.931 4.401 4.401 0 0 0 .87 3.277l7.445 9.751a14.32 14.32 0 0 0 3.523 4.296v7.452c0 .622.505 1.127 1.128 1.127h16.015c.622 0 1.127-.505 1.127-1.127V41.42a14.23 14.23 0 0 0 5.202-11.05V18.627a4.434 4.434 0 0 0-4.43-4.43zM10.027 26.006a2.161 2.161 0 0 1-.427-1.61 2.161 2.161 0 0 1 .835-1.439 2.16 2.16 0 0 1 1.61-.427 2.161 2.161 0 0 1 1.44.836l.517.678v6.327c0 .294.01.586.027.877l-4.002-5.242zM40.42 30.37a12 12 0 0 1-4.758 9.61 1.128 1.128 0 0 0-.443.896v6.869H21.458v-6.869a1.13 1.13 0 0 0-.444-.896 12.002 12.002 0 0 1-4.758-9.61V4.43c0-1.2.976-2.175 2.175-2.175 1.2 0 2.175.976 2.175 2.175v18.9a1.127 1.127 0 1 0 2.255 0v-7.945c0-1.199.976-2.175 2.175-2.175 1.2 0 2.175.976 2.175 2.175v8.107a1.127 1.127 0 1 0 2.254 0v-6.493c0-1.2.976-2.175 2.176-2.175 1.2 0 2.175.976 2.175 2.175v1.152c0 .055.005.108.012.16-.007.105-.012.21-.012.317v4.701a1.127 1.127 0 0 0 2.254 0v-4.701c0-1.2.976-2.175 2.175-2.175 1.2 0 2.175.976 2.175 2.175v11.744z" fill="#FF001F"/></svg>