<svg width="50" height="50" viewBox="0 0 50 50" fill="none" xmlns="http://www.w3.org/2000/svg"><g clip-path="url(#a)" fill="#FF001F"><path d="M15.397 10.02a.783.783 0 0 0-.783.784c0 .95-.773 1.722-1.722 1.722-.95 0-1.723-.772-1.723-1.722s.773-1.723 1.723-1.723a.783.783 0 0 0 0-1.565 3.292 3.292 0 0 0-3.288 3.288 3.292 3.292 0 0 0 3.288 3.288 3.292 3.292 0 0 0 3.288-3.288.783.783 0 0 0-.783-.783zm0 9.187a.783.783 0 0 0-.783.783c0 .95-.773 1.722-1.722 1.722-.95 0-1.723-.773-1.723-1.722 0-.95.773-1.723 1.723-1.723a.783.783 0 0 0 0-1.566 3.292 3.292 0 0 0-3.288 3.288 3.292 3.292 0 0 0 3.288 3.288 3.292 3.292 0 0 0 3.288-3.288.783.783 0 0 0-.783-.782zm9.185 1.67h-5.845a.783.783 0 1 0 0 1.566h5.846a.783.783 0 0 0 0-1.566zm0-3.34h-5.845a.783.783 0 0 0 0 1.565h5.846a.783.783 0 1 0 0-1.566zm-1.67 12.526h-4.175a.783.783 0 0 0 0 1.565h4.175a.783.783 0 0 0 0-1.565zm1.67-3.341h-5.845a.783.783 0 0 0 0 1.566h5.846a.783.783 0 0 0 0-1.566zm7.516-15.031H18.737a.783.783 0 0 0 0 1.566h13.361a.783.783 0 0 0 0-1.566zm-3.34-3.341H18.737a.783.783 0 0 0 0 1.566h10.02a.783.783 0 0 0 0-1.565zM15.397 28.392a.783.783 0 0 0-.783.783c0 .95-.773 1.723-1.722 1.723-.95 0-1.723-.773-1.723-1.723 0-.95.773-1.722 1.723-1.722a.783.783 0 0 0 0-1.566 3.292 3.292 0 0 0-3.288 3.288 3.292 3.292 0 0 0 3.288 3.288 3.292 3.292 0 0 0 3.288-3.288.783.783 0 0 0-.783-.783z"/><path d="M35.438 0H7.046a2.456 2.456 0 0 0-2.453 2.453v35.073c0 1.353 1.1 2.453 2.453 2.453h14.196a.783.783 0 0 0 0-1.566H7.046a.888.888 0 0 1-.888-.887V2.453c0-.49.399-.887.888-.887h28.392c.49 0 .888.398.888.887V28.34a.783.783 0 1 0 1.565 0V2.453C37.891 1.1 36.791 0 35.438 0z"/><path d="M42.83 31.747a2.888 2.888 0 0 0-2.03.571c-.46-.77-1.241-1.315-2.146-1.406a2.889 2.889 0 0 0-2.03.571c-.459-.77-1.24-1.315-2.145-1.406a2.892 2.892 0 0 0-1.598.3v-9.97c0-.81-.345-1.585-.945-2.129a2.884 2.884 0 0 0-2.22-.727c-1.444.145-2.576 1.452-2.576 2.975v9.995l-2.302 2.302a4.927 4.927 0 0 0-1.32 4.642l1.747 7.425A6.603 6.603 0 0 0 31.717 50h7.062a6.636 6.636 0 0 0 6.628-6.628v-8.65c0-1.523-1.132-2.83-2.577-2.975zm1.011 11.625a5.068 5.068 0 0 1-5.062 5.062h-7.062a5.043 5.043 0 0 1-4.928-3.903l-1.747-7.425a3.371 3.371 0 0 1 .903-3.176l1.195-1.194v2.702a.783.783 0 0 0 1.566 0V20.526c0-.729.512-1.351 1.167-1.417a1.308 1.308 0 0 1 1.442 1.298v13.779a.783.783 0 1 0 1.566 0v-1.253a1.307 1.307 0 0 1 1.442-1.298c.655.066 1.168.688 1.168 1.417v1.969a.783.783 0 0 0 1.566 0v-1.253a1.307 1.307 0 0 1 1.442-1.298c.654.066 1.167.688 1.167 1.417v1.969a.783.783 0 1 0 1.566 0v-1.253a1.307 1.307 0 0 1 1.442-1.298c.655.066 1.168.688 1.168 1.417v8.65z"/></g><defs><clipPath id="a"><path fill="#fff" d="M0 0h50v50H0z"/></clipPath></defs></svg>